<?xml version="1.0" encoding="UTF-8" standalone="no"?>
<!-- Generator: Adobe Illustrator 19.0.0, SVG Export Plug-In . SVG Version: 6.00 Build 0)  -->

<svg
   version="1.1"
   id="Layer_1"
   x="0px"
   y="0px"
   viewBox="0 0 512 512"
   style="enable-background:new 0 0 512 512;"
   xml:space="preserve"
   sodipodi:docname="nox_logo.svg"
   inkscape:version="1.2.2 (732a01da63, 2022-12-09)"
   xmlns:inkscape="http://www.inkscape.org/namespaces/inkscape"
   xmlns:sodipodi="http://sodipodi.sourceforge.net/DTD/sodipodi-0.dtd"
   xmlns="http://www.w3.org/2000/svg"
   xmlns:svg="http://www.w3.org/2000/svg"><defs
   id="defs102" /><sodipodi:namedview
   id="namedview100"
   pagecolor="#ffffff"
   bordercolor="#000000"
   borderopacity="0.25"
   inkscape:showpageshadow="2"
   inkscape:pageopacity="0.0"
   inkscape:pagecheckerboard="0"
   inkscape:deskcolor="#d1d1d1"
   showgrid="false"
   inkscape:zoom="2.0058594"
   inkscape:cx="152.80234"
   inkscape:cy="255.75073"
   inkscape:window-width="3440"
   inkscape:window-height="1316"
   inkscape:window-x="-12"
   inkscape:window-y="-12"
   inkscape:window-maximized="1"
   inkscape:current-layer="Layer_1" />
<path
   style="fill:#a3aaaf"
   d="M 338.10182,204.12128 424.43908,335.40734 389.56111,41.382058 382.9229,45.747521 C 346.78249,69.514429 329.89067,108.09327 335.00647,151.21622 l 34.15254,19.80148 z"
   id="path53" />
<path
   style="fill:#dd342e"
   d="m 396.66185,469.89306 v 0 C 351.67079,499.48041 291.76347,487.10691 262.17613,442.11584 L 87.560918,176.59266 C 57.973576,131.60159 70.347076,71.694279 115.33815,42.106937 160.32921,12.519595 220.23653,24.893094 249.82387,69.884163 L 424.43853,335.4065 c 29.58789,44.99191 17.21439,104.89922 -27.77668,134.48656"
   id="path55" />
<g
   id="g61"
   transform="rotate(-33.33,256,256)">
	<path
   style="fill:#e0e0e0"
   d="m 300.138,432.552 c 0,-24.717 -19.421,-44.138 -44.138,-44.138 -24.717,0 -44.138,19.421 -44.138,44.138 0,24.717 19.421,44.138 44.138,44.138 24.717,0 44.138,-19.421 44.138,-44.138"
   id="path57" />
	<path
   style="fill:#e0e0e0"
   d="M 300.138,79.448 C 300.138,54.731 280.717,35.31 256,35.31 c -24.717,0 -44.138,19.421 -44.138,44.138 0,24.717 19.421,44.138 44.138,44.138 24.717,0 44.138,-19.42 44.138,-44.138"
   id="path59" />
</g>
<path
   style="fill:#ffffff"
   d="m 293.07791,199.92013 -29.5022,19.40144 -19.40144,-29.5022 -44.25414,29.10272 19.40144,29.5022 -29.5022,19.40144 29.10272,44.25414 29.5022,-19.40144 19.40144,29.5022 44.25414,-29.10272 -19.40144,-29.5022 29.5022,-19.40144 z"
   id="path63" />
<path
   style="fill:#a3aaaf"
   d="m 87.560918,176.59266 0.925171,242.39601 33.952801,51.62927 34.61287,-53.40196 3.2654,-129.9888 c 0,0 -72.271068,-109.89675 -72.756242,-110.63452"
   id="path65" />
<path
   style="fill:#697a84"
   d="m 88.486089,418.98867 -0.416901,-50.43918 33.587912,31.7955 0.78234,70.27379 -33.953351,-51.63011 z"
   id="path67" />
<g
   id="g69"
   transform="rotate(-33.33,256,256)">
</g>
<g
   id="g71"
   transform="rotate(-33.33,256,256)">
</g>
<g
   id="g73"
   transform="rotate(-33.33,256,256)">
</g>
<g
   id="g75"
   transform="rotate(-33.33,256,256)">
</g>
<g
   id="g77"
   transform="rotate(-33.33,256,256)">
</g>
<g
   id="g79"
   transform="rotate(-33.33,256,256)">
</g>
<g
   id="g81"
   transform="rotate(-33.33,256,256)">
</g>
<g
   id="g83"
   transform="rotate(-33.33,256,256)">
</g>
<g
   id="g85"
   transform="rotate(-33.33,256,256)">
</g>
<g
   id="g87"
   transform="rotate(-33.33,256,256)">
</g>
<g
   id="g89"
   transform="rotate(-33.33,256,256)">
</g>
<g
   id="g91"
   transform="rotate(-33.33,256,256)">
</g>
<g
   id="g93"
   transform="rotate(-33.33,256,256)">
</g>
<g
   id="g95"
   transform="rotate(-33.33,256,256)">
</g>
<g
   id="g97"
   transform="rotate(-33.33,256,256)">
</g>
</svg>
