<?xml version="1.0" encoding="UTF-8" standalone="no"?>
<!-- Generator: Adobe Illustrator 19.0.0, SVG Export Plug-In . SVG Version: 6.00 Build 0)  -->

<svg
   version="1.1"
   id="Layer_1"
   x="0px"
   y="0px"
   viewBox="0 0 256 256"
   xml:space="preserve"
   width="256"
   height="256"
   xmlns="http://www.w3.org/2000/svg"
   xmlns:svg="http://www.w3.org/2000/svg"><defs
   id="defs102" />
<path
   style="fill:#a3aaaf;stroke-width:0.462926"
   d="m 168.73199,102.98614 39.96777,60.77575 -16.14592,-136.111977 -3.073,2.020887 C 172.7505,40.673121 164.93083,58.532273 167.29907,78.495011 l 15.81011,9.166622 z"
   id="path53" />
<path
   style="fill:#dd342e;stroke-width:0.462926"
   d="m 195.84096,226.01884 v 0 c -20.82754,13.69675 -48.5602,7.96874 -62.25695,-12.8588 L 52.750074,90.242427 C 39.053322,69.414888 44.781338,41.682231 65.608879,27.985479 86.436415,14.288727 114.16908,20.016742 127.86582,40.844282 L 208.6995,163.76149 c 13.69702,20.82793 7.969,48.5606 -12.85854,62.25735"
   id="path55" />
<g
   id="g61"
   transform="matrix(0.38678389,-0.25435953,0.25435953,0.38678389,-33.407799,93.10152)">
	<path
   style="fill:#e0e0e0"
   d="m 300.138,432.552 c 0,-24.717 -19.421,-44.138 -44.138,-44.138 -24.717,0 -44.138,19.421 -44.138,44.138 0,24.717 19.421,44.138 44.138,44.138 24.717,0 44.138,-19.421 44.138,-44.138"
   id="path57" />
	<path
   style="fill:#e0e0e0"
   d="M 300.138,79.448 C 300.138,54.731 280.717,35.31 256,35.31 c -24.717,0 -44.138,19.421 -44.138,44.138 0,24.717 19.421,44.138 44.138,44.138 24.717,0 44.138,-19.42 44.138,-44.138"
   id="path59" />
</g>
<path
   style="fill:#ffffff;stroke-width:0.462926"
   d="m 147.88925,101.04132 -13.65734,8.98144 -8.98143,-13.657343 -20.4864,13.472413 8.98144,13.65733 -13.65734,8.98143 13.47241,20.4864 13.65733,-8.98143 8.98144,13.65734 20.48639,-13.47241 -8.98144,-13.65733 13.65734,-8.98144 z"
   id="path63" />
<path
   style="fill:#a3aaaf;stroke-width:0.462926"
   d="m 52.750074,90.242427 0.428287,112.211433 15.717636,23.90054 16.023201,-24.72116 1.511638,-60.1752 c 0,0 -33.456161,-50.874079 -33.680762,-51.215613"
   id="path65" />
<path
   style="fill:#697a84;stroke-width:0.462926"
   d="m 53.178361,202.45386 -0.192996,-23.34961 15.548721,14.71897 0.362165,32.53156 z"
   id="path67" />
<g
   id="g69"
   transform="matrix(0.38678389,-0.25435953,0.25435953,0.38678389,-33.407799,93.10152)">
</g>
<g
   id="g71"
   transform="matrix(0.38678389,-0.25435953,0.25435953,0.38678389,-33.407799,93.10152)">
</g>
<g
   id="g73"
   transform="matrix(0.38678389,-0.25435953,0.25435953,0.38678389,-33.407799,93.10152)">
</g>
<g
   id="g75"
   transform="matrix(0.38678389,-0.25435953,0.25435953,0.38678389,-33.407799,93.10152)">
</g>
<g
   id="g77"
   transform="matrix(0.38678389,-0.25435953,0.25435953,0.38678389,-33.407799,93.10152)">
</g>
<g
   id="g79"
   transform="matrix(0.38678389,-0.25435953,0.25435953,0.38678389,-33.407799,93.10152)">
</g>
<g
   id="g81"
   transform="matrix(0.38678389,-0.25435953,0.25435953,0.38678389,-33.407799,93.10152)">
</g>
<g
   id="g83"
   transform="matrix(0.38678389,-0.25435953,0.25435953,0.38678389,-33.407799,93.10152)">
</g>
<g
   id="g85"
   transform="matrix(0.38678389,-0.25435953,0.25435953,0.38678389,-33.407799,93.10152)">
</g>
<g
   id="g87"
   transform="matrix(0.38678389,-0.25435953,0.25435953,0.38678389,-33.407799,93.10152)">
</g>
<g
   id="g89"
   transform="matrix(0.38678389,-0.25435953,0.25435953,0.38678389,-33.407799,93.10152)">
</g>
<g
   id="g91"
   transform="matrix(0.38678389,-0.25435953,0.25435953,0.38678389,-33.407799,93.10152)">
</g>
<g
   id="g93"
   transform="matrix(0.38678389,-0.25435953,0.25435953,0.38678389,-33.407799,93.10152)">
</g>
<g
   id="g95"
   transform="matrix(0.38678389,-0.25435953,0.25435953,0.38678389,-33.407799,93.10152)">
</g>
<g
   id="g97"
   transform="matrix(0.38678389,-0.25435953,0.25435953,0.38678389,-33.407799,93.10152)">
</g>
</svg>
